<svg xmlns="http://www.w3.org/2000/svg" viewBox="0 0 128 128">
  <defs>
    <linearGradient id="field" x1="0" x2="0" y1="0" y2="1">
      <stop offset="0%" stop-color="#22c55e"/>
      <stop offset="50%" stop-color="#15803d"/>
      <stop offset="100%" stop-color="#052e16"/>
    </linearGradient>
  </defs>
  <rect width="128" height="128" rx="26" fill="#0f172a"/>
  <rect x="14" y="18" width="100" height="92" rx="10" fill="#0f172a" stroke="#facc15" stroke-width="5"/>
  <rect x="22" y="26" width="84" height="76" rx="5" fill="url(#field)"/>
  <rect x="22" y="26" width="15" height="76" fill="#1e3a8a" opacity=".92"/>
  <rect x="91" y="26" width="15" height="76" fill="#1e3a8a" opacity=".92"/>
  <path d="M37 26v76M47 26v76M57 26v76M64 26v76M71 26v76M81 26v76M91 26v76" stroke="#f8fafc" stroke-width="2.4" opacity=".88"/>
  <path d="M41 41h4M41 51h4M41 61h4M41 71h4M41 81h4M83 41h4M83 51h4M83 61h4M83 71h4M83 81h4" stroke="#f8fafc" stroke-width="2.2" stroke-linecap="round"/>
  <path d="M25 31h8M25 97h8M95 31h8M95 97h8" stroke="#facc15" stroke-width="3" stroke-linecap="round"/>
  <path d="M14 46H7v36h7M114 46h7v36h-7" stroke="#facc15" stroke-width="5" stroke-linecap="round" stroke-linejoin="round"/>
  <path d="M52 64c6-11 18-11 24 0-6 11-18 11-24 0Z" fill="#92400e" stroke="#fff7ed" stroke-width="3"/>
  <path d="M59 60h10M58 64h12M59 68h10" stroke="#fff7ed" stroke-width="2" stroke-linecap="round"/>
</svg>
