<svg xmlns="http://www.w3.org/2000/svg" viewBox="0 0 128 128">
  <defs>
    <linearGradient id="field" x1="0" x2="0" y1="0" y2="1">
      <stop offset="0%" stop-color="#22c55e"/>
      <stop offset="50%" stop-color="#15803d"/>
      <stop offset="100%" stop-color="#052e16"/>
    </linearGradient>
  </defs>
  <rect width="128" height="128" rx="26" fill="#0f172a"/>
  <rect x="34" y="6" width="60" height="116" rx="14" fill="#020617" stroke="#facc15" stroke-width="5"/>
  <rect x="41" y="16" width="46" height="96" rx="6" fill="url(#field)"/>
  <rect x="41" y="16" width="46" height="14" fill="#1e3a8a" opacity=".95"/>
  <rect x="41" y="98" width="46" height="14" fill="#1e3a8a" opacity=".95"/>
  <path d="M41 30h46M41 98h46" stroke="#f8fafc" stroke-width="3"/>
  <path d="M41 44h46M41 54h46M41 64h46M41 74h46M41 84h46" stroke="#f8fafc" stroke-width="1.8" opacity=".78"/>
  <path d="M53 39h5M70 39h5M53 49h5M70 49h5M53 59h5M70 59h5M53 69h5M70 69h5M53 79h5M70 79h5M53 89h5M70 89h5" stroke="#f8fafc" stroke-width="1.8" stroke-linecap="round"/>
  <path d="M55 14V7h18v7M55 114v7h18v-7" stroke="#facc15" stroke-width="4" stroke-linecap="round" stroke-linejoin="round"/>
  <path d="M45 64c8-13 30-13 38 0-8 13-30 13-38 0Z" fill="#f97316" stroke="#facc15" stroke-width="2.5"/>
  <path d="M56 58h16M54 64h20M56 70h16" stroke="#7c2d12" stroke-width="1.8" stroke-linecap="round" opacity=".65"/>
  <text x="64" y="69" fill="#020617" font-size="15" font-weight="900" text-anchor="middle" font-family="Arial, sans-serif">MMG</text>
  <circle cx="64" cy="116.5" r="2.4" fill="#334155"/>
</svg>
